# Blender 4.1.1
# www.blender.org
mtllib goal.mtl
o 立方体.001
v -0.410380 4.473359 -0.561421
v -0.410380 6.446883 -0.561421
v -0.410380 4.473359 -4.198446
v -0.410380 6.446883 -4.198446
v 0.410380 4.473359 -0.561421
v 0.410380 6.446883 -0.561421
v 0.410380 4.473359 -4.198446
v 0.410380 6.446883 -4.198446
v -0.431177 -3.288524 0.553399
v -0.431177 6.444748 0.553399
v -0.431177 -3.288524 -0.553399
v -0.431177 6.444748 -0.553399
v 0.431177 -3.288524 0.553399
v 0.431177 6.444748 0.553399
v 0.431177 -3.288524 -0.553399
v 0.431177 6.444748 -0.553399
vn -1.0000 -0.0000 -0.0000
vn -0.0000 -0.0000 -1.0000
vn 1.0000 -0.0000 -0.0000
vn -0.0000 -0.0000 1.0000
vn -0.0000 -1.0000 -0.0000
vn -0.0000 1.0000 -0.0000
vt 0.868078 0.130537
vt 0.736272 0.262343
vt 0.736272 0.130537
vt 0.868078 0.262343
vt 0.736272 0.394150
vt 0.868078 0.394150
vt 0.736272 0.525957
vt 0.868078 0.525957
vt 0.736272 0.657763
vt 0.604465 0.525957
vt 0.604465 0.394150
vt 0.999885 0.394150
vt 0.402861 0.130537
vt 0.201488 0.331910
vt 0.201488 0.130537
vt 0.402861 0.331910
vt 0.201488 0.533283
vt 0.402861 0.533283
vt 0.201488 0.734656
vt 0.402861 0.734656
vt 0.201488 0.936029
vt 0.000115 0.734656
vt 0.000115 0.533283
vt 0.604234 0.533283
vt 0.868078 0.657763
vt 0.999885 0.525957
vt 0.402861 0.936029
vt 0.604234 0.734656
s 0
usemtl マテリアル
f 2/1/1 3/2/1 1/3/1
f 4/4/2 7/5/2 3/2/2
f 8/6/3 5/7/3 7/5/3
f 6/8/4 1/9/4 5/7/4
f 7/5/5 1/10/5 3/11/5
f 4/12/6 6/8/6 8/6/6
f 10/13/1 11/14/1 9/15/1
f 12/16/2 15/17/2 11/14/2
f 16/18/3 13/19/3 15/17/3
f 14/20/4 9/21/4 13/19/4
f 15/17/5 9/22/5 11/23/5
f 12/24/6 14/20/6 16/18/6
f 2/1/1 4/4/1 3/2/1
f 4/4/2 8/6/2 7/5/2
f 8/6/3 6/8/3 5/7/3
f 6/8/4 2/25/4 1/9/4
f 7/5/5 5/7/5 1/10/5
f 4/12/6 2/26/6 6/8/6
f 10/13/1 12/16/1 11/14/1
f 12/16/2 16/18/2 15/17/2
f 16/18/3 14/20/3 13/19/3
f 14/20/4 10/27/4 9/21/4
f 15/17/5 13/19/5 9/22/5
f 12/24/6 10/28/6 14/20/6
